<svg width="26" height="32" viewBox="0 0 26 32" fill="none" xmlns="http://www.w3.org/2000/svg">
<rect x="0.5" y="3.5" width="23" height="28" rx="0.5" stroke="white"/>
<path d="M4 1.5H24C24.2761 1.5 24.5 1.72386 24.5 2V28C24.5 28.2761 24.2761 28.5 24 28.5H4C3.72386 28.5 3.5 28.2761 3.5 28V2C3.5 1.72386 3.72386 1.5 4 1.5Z" fill="#1F1F1F" stroke="white"/>
<path d="M7 25H11" stroke="white" stroke-linecap="round"/>
<path d="M7 18H21" stroke="white" stroke-linecap="round"/>
<path d="M7 21H21" stroke="white" stroke-linecap="round"/>
<path d="M7 12H19" stroke="white" stroke-linecap="round"/>
<path d="M7 15H21" stroke="white" stroke-linecap="round"/>
<path d="M7 9H21" stroke="white" stroke-linecap="round"/>
<path d="M9 6L21 6" stroke="white" stroke-linecap="round"/>
<rect x="21" width="5" height="5" fill="#1F1F1F"/>
<line x1="20.3536" y1="0.646447" x2="25.3536" y2="5.64645" stroke="white"/>
<rect x="25" y="4" width="1" height="2" fill="#1F1F1F"/>
<rect x="20" width="2" height="1" fill="#1F1F1F"/>
</svg>
