<svg width="13" height="16" viewBox="0 0 13 16" fill="fff" xmlns="http://www.w3.org/2000/svg">
<path d="M5.09961 11.2617H6.54102C7.2168 11.2617 7.70898 11.1289 8.01758 10.8633C8.33008 10.5938 8.48633 10.2188 8.48633 9.73828C8.48633 9.16406 8.3125 8.73438 7.96484 8.44922C7.61719 8.16016 7.06836 8.01562 6.31836 8.01562C6.08789 8.01562 5.90234 8.01562 5.76172 8.01562C5.62109 8.01562 5.50781 8.01562 5.42188 8.01562C5.33594 8.01562 5.26953 8.01758 5.22266 8.02148C5.17969 8.02148 5.13867 8.02344 5.09961 8.02734V11.2617ZM8.30469 5.76562C8.30469 5.51562 8.26562 5.29688 8.1875 5.10938C8.11328 4.91797 7.99219 4.75781 7.82422 4.62891C7.66016 4.5 7.44727 4.4043 7.18555 4.3418C6.92383 4.27539 6.60742 4.24219 6.23633 4.24219C6.04492 4.24219 5.88281 4.24609 5.75 4.25391C5.61719 4.25781 5.50586 4.26367 5.41602 4.27148C5.33008 4.27539 5.26172 4.2793 5.21094 4.2832C5.16406 4.28711 5.12695 4.28906 5.09961 4.28906V7.28906C5.26367 7.30078 5.42773 7.3125 5.5918 7.32422C5.75977 7.33203 5.93164 7.33594 6.10742 7.33594C6.44336 7.33594 6.74609 7.30469 7.01562 7.24219C7.28906 7.17578 7.51953 7.07812 7.70703 6.94922C7.89844 6.81641 8.04492 6.65234 8.14648 6.45703C8.25195 6.26172 8.30469 6.03125 8.30469 5.76562ZM3.79297 5.23828C3.79297 4.87891 3.76172 4.59766 3.69922 4.39453C3.63281 4.38672 3.55859 4.38086 3.47656 4.37695C3.39844 4.36914 3.31445 4.36523 3.22461 4.36523C3.10352 4.36523 2.97656 4.36914 2.84375 4.37695C2.71094 4.38086 2.58203 4.38477 2.45703 4.38867V3.7207C2.98438 3.64648 3.57812 3.58984 4.23828 3.55078C4.90234 3.50781 5.66016 3.48633 6.51172 3.48633C7.53516 3.48633 8.30273 3.67383 8.81445 4.04883C9.33008 4.41992 9.58789 4.98047 9.58789 5.73047C9.58789 5.96484 9.54492 6.1875 9.45898 6.39844C9.37305 6.60938 9.25195 6.79883 9.0957 6.9668C8.94336 7.13477 8.75977 7.27539 8.54492 7.38867C8.33008 7.50195 8.09375 7.57812 7.83594 7.61719C9.14844 7.79297 9.80469 8.48633 9.80469 9.69727C9.80469 10.0566 9.75 10.3633 9.64062 10.6172C9.53516 10.8672 9.38672 11.0781 9.19531 11.25C9.00391 11.4219 8.77539 11.5586 8.50977 11.6602C8.24414 11.7578 7.95508 11.832 7.64258 11.8828C7.33008 11.9336 6.99805 11.9668 6.64648 11.9824C6.29492 11.9941 5.93555 12 5.56836 12C5.06055 12 4.56055 12.0059 4.06836 12.0176C3.58008 12.0332 3.08203 12.0547 2.57422 12.082V11.2617H3.0957C3.20898 11.2617 3.31641 11.2598 3.41797 11.2559C3.51953 11.252 3.61328 11.2363 3.69922 11.209C3.76172 11.0488 3.79297 10.8125 3.79297 10.5V5.23828Z" fill="#fff"/>

</svg>
